<svg clip-rule="evenodd" fill-rule="evenodd" stroke-linejoin="round" stroke-miterlimit="2" viewBox="0 0 550 200" xmlns="http://www.w3.org/2000/svg"><g fill="#fff" fill-rule="nonzero"><path d="m180.952 80.415c1.153 0 2.088-.935 2.088-2.088v-4.644h4.365c1.153 0 2.088-.935 2.088-2.088v-57.12c0-1.153-.937-2.088-2.088-2.088h-20.011c-1.153 0-2.088.935-2.088 2.088v57.118c0 1.153.937 2.088 2.088 2.088h3.867v4.644c0 1.153.936 2.088 2.087 2.088h2.035v.872h-21.805v-.872h1.64c1.153 0 2.088-.935 2.088-2.088v-4.644h4.124c1.152 0 2.087-.935 2.087-2.088v-57.118c0-1.153-.937-2.088-2.087-2.088h-20.012c-1.153 0-2.088.935-2.088 2.088v21.989c-.003.002-.007.004-.011.008l-5.646 5.701c-.11-.12-.197-.26-.313-.37-.381-1.414-1.677-2.456-3.209-2.456h-17.721c-1.114 0-2.104.55-2.708 1.39-.45-.626-1.108-1.09-1.872-1.286v-1.801h.405c1.152 0 2.087-.935 2.087-2.088v-5.569c0-1.153-.937-2.088-2.087-2.088h-12.363c-1.153 0-2.087.935-2.087 2.088v5.569c0 1.153.934 2.088 2.087 2.088h.409v1.799c-.766.196-1.428.662-1.876 1.29-.605-.842-1.593-1.392-2.706-1.392h-8.812c-.361-.472-.744-.929-1.168-1.357-2.659-2.687-6.198-4.174-9.975-4.191-2.305 0-4.481.565-6.414 1.545v-20.869c0-1.153-.934-2.088-2.087-2.088h-20.016c-1.152 0-2.087.935-2.087 2.088v57.12c0 1.153.935 2.088 2.087 2.088h3.875v4.642c0 1.153.935 2.088 2.088 2.088h1.891v.72h-21.811v-.72h1.789c1.153 0 2.088-.935 2.088-2.088v-4.642h4.114c1.153 0 2.088-.935 2.088-2.088v-57.12c0-1.153-.935-2.088-2.088-2.088h-20.005c-1.153 0-2.088.935-2.088 2.088v57.12c0 1.153.935 2.088 2.088 2.088h4.114v4.642c0 1.153.935 2.088 2.087 2.088h1.638v2.727c0 .028-.016.051-.016.081v8.635c0 .029.016.053.016.08v2.691h-1.638c-1.152 0-2.087.935-2.087 2.087v4.835h-4.116c-1.153 0-2.088.937-2.088 2.088v57.118c0 1.153.935 2.088 2.088 2.088h20.007c1.153 0 2.088-.937 2.088-2.088v-57.116c0-1.153-.935-2.088-2.088-2.088h-4.114v-4.835c0-1.152-.935-2.087-2.088-2.087h-1.789v-.684h21.809v.684h-1.891c-1.153 0-2.088.935-2.088 2.087v4.835h-3.875c-1.152 0-2.087.937-2.087 2.088v57.118c0 1.153.935 2.088 2.087 2.088h12.129v4.88c0 1.153.935 2.088 2.088 2.088h32.882c1.153 0 2.088-.937 2.088-2.088v-2.6h2.144v3.494c0 1.376.89 2.553 2.214 2.983.333.355.709.671 1.119.948l-2.753 5.507c-.146.289-.22.611-.22.935v6.533c0 1.153.935 2.088 2.087 2.088h10.937c1.153 0 2.088-.937 2.088-2.088v-6.533c0-.344-.085-.682-.248-.982l-2.965-5.56c.345-.245.679-.507.968-.809 1.302-.391 2.252-1.597 2.252-3.02v-3.494h2.11v2.6c0 1.153.936 2.088 2.087 2.088h32.881c1.153 0 2.087-.937 2.087-2.088v-4.882h12.204c1.152 0 2.087-.937 2.087-2.088v-57.12c0-1.153-.936-2.088-2.087-2.088h-4.124v-4.833c0-1.152-.937-2.087-2.088-2.087h-1.64v-.53h21.813v.53h-2.035c-1.153 0-2.087.935-2.087 2.087v4.833h-3.867c-1.153 0-2.088.937-2.088 2.088v57.12c0 1.153.937 2.088 2.088 2.088h20.007c1.153 0 2.088-.937 2.088-2.088v-57.12c0-1.153-.937-2.088-2.088-2.088h-4.361v-4.833c0-1.152-.937-2.087-2.088-2.087h-1.39v-2.533c.002-.03.017-.055.017-.085v-8.635c0-.031-.015-.055-.017-.084v-2.875h1.388zm4.364-40.106h-15.833v-9.845h15.833zm-15.833 4.175h15.833v9.841h-15.833zm15.833-27.922v9.727h-15.833v-9.727zm-15.833 41.938h15.833v11.007h-15.833zm-134.287-18.193h-15.833v-9.839h15.833zm-15.833 4.175h15.833v9.843h-15.833zm15.833-27.92v9.729h-15.833v-9.729zm-15.833 41.936h15.833v11.009h-15.833zm9.629 17.741h-3.427v-2.503h3.427zm-9.631 58.682h15.833v9.843h-15.833zm15.835-4.177h-15.835v-9.837h15.833v9.837zm-15.835 27.924v-9.727h15.833v9.727zm15.835-41.936h-15.835v-11.005h15.833v11.005zm-9.631-17.928h3.427v2.502h-3.427zm143.918 36.121h15.831v9.837h-15.831zm15.829-4.177h-15.831v-9.841h15.831zm-15.829 27.92v-9.729h15.831v9.729zm15.829-41.936h-15.831v-11.005h15.831zm-9.874-17.928h3.425v2.502h-3.425zm-23.129-8.882c-.251-.108-.528-.169-.818-.169-.103 0-.189.043-.287.057l2.042-2.602 2.127 2.714zm-11.188-2.713 2.125 2.713h-4.251zm-5.029-.351v-1.396h1.096zm8.963-1.396h4.256l-2.129 2.712zm12.127 0h4.253l-2.128 2.712zm8.189 1.747 2.125 2.713h-4.254zm3.934-1.747h4.249l-2.125 2.71zm-16.175-9.223h-3.423v-2.503h3.423zm-9.624-6.732v-9.813h3.507c.829 0 1.532-.493 1.87-1.194h10.457v11.007zm0-39.043h15.834v9.845h-10.239v-2.368c0-1.153-.937-2.088-2.088-2.088h-3.507zm5.597 14.02h10.239v9.841h-10.239zm10.239-27.922v9.727h-15.834v-9.727zm-23.499 29.35 5.828-5.884h3.254v15.491h-3.293l-5.838-5.524c-.055-.051-.126-.071-.185-.116.135-.631.224-1.279.224-1.944 0-.649-.073-1.275-.199-1.884.069-.053.148-.078.209-.139zm-2.485 8.146c.108-.102.189-.238.289-.348l5.681 5.377v12.508c0 1.153.937 2.088 2.088 2.088h4.112v4.644c0 1.153.937 2.088 2.088 2.088h1.783v.872h-13.385v-1.703c0-1.153-.937-2.088-2.088-2.088h-23.586v-21.716c.57.458 1.294.733 2.082.733h17.729c1.532 0 2.826-1.043 3.207-2.455zm-42.389-10.538c.139.432.418.815.801 1.08.458.316.858.856 1.129 1.52.32.787 1.084 1.302 1.935 1.302h1.056c1.153 0 2.088-.935 2.088-2.088v-1.812h.408c1.153 0 2.088-.935 2.088-2.088v-5.87c0-1.152-.935-2.087-2.088-2.087h-.408v-1.395h8.185v1.395h-.404c-1.153 0-2.088.935-2.088 2.087v5.87c0 1.153.935 2.088 2.088 2.088h.404v1.812c0 1.153.937 2.088 2.088 2.088h1.06c.852 0 1.618-.518 1.936-1.31.264-.654.664-1.194 1.13-1.52.377-.265.652-.644.789-1.072h16.231c.138.43.413.809.792 1.074.891.621 1.465 1.932 1.465 3.341 0 1.404-.576 2.716-1.469 3.34-.375.263-.648.638-.786 1.064h-16.239c-.137-.426-.412-.801-.787-1.064-.468-.328-.87-.868-1.131-1.524-.319-.791-1.086-1.312-1.939-1.312h-1.054c-1.153 0-2.088.935-2.088 2.088v26.969h-1.985v-9.022c0-1.152-.935-2.087-2.088-2.087s-2.087.935-2.087 2.087v9.022h-2.031v-26.971c0-1.153-.935-2.088-2.088-2.088h-1.058c-.851 0-1.616.517-1.935 1.306-.267.66-.671 1.204-1.141 1.534-.373.263-.646.638-.783 1.062h-5.848c.449-1.364.701-2.82.707-4.332.009-1.549-.244-3.056-.711-4.487zm-12.202-2.594c1.876 1.893 2.899 4.401 2.883 7.062-.019 5.461-4.485 9.903-9.952 9.903v2.088l-.051-2.088c-5.487-.029-9.938-4.522-9.918-10.009.039-5.464 4.541-9.908 10.026-9.908 2.649.01 5.141 1.058 7.012 2.952zm-18.935-.619h-14.497v-9.839h15.838v8.05c0 .012.006.022.006.033-.491.548-.942 1.133-1.347 1.756zm-14.497 4.175h12.671c-.277 1.084-.444 2.211-.452 3.378-.008 2.327.56 4.523 1.553 6.465h-13.772zm15.84-27.92v9.729h-15.838v-9.729zm-15.84 41.936h15.838v11.009h-15.838zm5.962 17.741v-2.503h3.429v2.503zm3.979 4.176h1.538c1.152 0 2.087-.935 2.087-2.088v-4.643h4.362c1.153 0 2.087-.934 2.087-2.087v-11.06c1.894.958 4.024 1.516 6.287 1.529h.063c4.558 0 8.613-2.185 11.199-5.551h8.81c.79 0 1.514-.275 2.086-.737v21.72h-22.983c-1.153 0-2.088.935-2.088 2.088v1.549h-13.448zm-2.16 4.893c.025 0 .045.014.07.014.026 0 .046-.014.071-.014h.303l-2.131 2.715-2.127-2.715zm-17.742 4.462h-4.251l2.126-2.712zm1.809-4.462h4.254l-2.127 2.715zm8.187 1.75 2.125 2.71h-4.25zm12.125-.002 2.127 2.712h-4.256zm3.936-1.748h4.253l-2.127 2.713zm7.156 3.064v1.396h-1.096zm-39.273-3.064-.024.032v-.032zm21.983 13.496h3.429v2.502h-3.429zm9.878 6.923v11.005h-15.838v-11.005zm27.086 52.562h-4.011v-3.319h4.011zm-8.186 0h-3.974v-3.319h3.974zm-3.976 4.177h3.974v3.172h-3.974zm-4.176 3.172h-3.982v-3.172h3.982zm0-7.349h-3.982v-3.319h3.982zm-8.157-3.321v3.319h-4.215v-3.319zm-2.591-24.224h-15.838v-9.837h15.838zm-15.84 4.177h15.838v9.843h-15.838zm0 23.747v-9.727h15.838v1.85h-3.709c-1.153 0-2.088.937-2.088 2.087v5.788h-10.041zm14.216 3.798h4.215v3.172h-4.215zm24.699 3.172v-3.172h4.011v3.172zm14.863 17.798v-2.306h6.759v2.306zm5.397-6.481h-4.132l1.573-3.146c.123.006.241.035.365.035.175 0 .338-.037.509-.047zm3.462-16.007c-1.153 0-2.088.937-2.088 2.087v4.737c-.349.151-.656.401-.88.723-.494.711-1.549 1.17-2.686 1.17-1.135 0-2.186-.457-2.681-1.17-.204-.293-.524-.524-.882-.68v-4.781c0-1.153-.934-2.088-2.087-2.088h-4.211v-1.208h4.211c1.153 0 2.087-.937 2.087-2.087v-3.63c.348-.151.652-.396.876-.714.423-.603.584-.76.908-.892.789-.318 1.308-1.084 1.308-1.934v-10.501c0-.939-.625-1.76-1.53-2.011-.976-.271-1.662-.776-2.294-1.683-.391-.562-1.031-.898-1.715-.898l-.223.002c-.148-.009-.401-.08-.621-.166v-18.38c.218-.085.465-.153.605-.161h.241c.686 0 1.326-.338 1.717-.9.428-.618 1.117-1.133 1.989-1.484.79-.318 1.308-1.086 1.308-1.937v-1.653c.312.037.617.094.939.094.367 0 .717-.059 1.07-.108v1.667c0 .851.515 1.615 1.302 1.933.862.351 1.567.876 1.984 1.483.389.565 1.031.905 1.72.905l.23-.002c.145.01.4.08.622.167v18.376c-.218.086-.467.157-.607.164h-.247c-.685 0-1.326.338-1.716.9-.711 1.025-1.122 1.434-2.015 1.681-.904.249-1.532 1.072-1.532 2.011v10.501c0 .854.579 1.643 1.373 1.962.041.041.147.21.224.333.106.169.218.348.349.533.204.286.521.516.872.669v3.516c-.002.049-.006.104-.006.155 0 1.152.937 2.087 2.088 2.087h4.198v1.208h-4.2zm-5.882-67.16h.583c.9-.006 1.634 0 2.267.044v1.785c-.841-.309-1.734-.503-2.681-.503-.715 0-1.396.128-2.054.308v-1.62c.512-.018 1.088-.018 1.753-.012h.128c.002-.002.004-.002.004-.002zm-3.501 9.17c0-2.023 1.645-3.669 3.67-3.669 2.021 0 3.664 1.646 3.664 3.669 0 2.022-1.643 3.668-3.664 3.668-2.025 0-3.67-1.646-3.67-3.668zm44.917 31.967h15.834v9.837h-15.834zm15.836-4.177h-15.834v-9.841h15.834zm-14.293 27.541h-4.006v-3.319h4.006zm-8.183 0h-3.979v-3.319h3.979zm-3.979 4.177h3.979v3.172h-3.979zm-4.177 3.172h-3.979v-3.172h3.979zm0-7.349h-3.979v-3.319h3.979zm-8.156 0h-4.201v-.636c0-.014-.007-.026-.007-.04v-2.645h4.208zm-4.208 4.786c0-.014.007-.026.007-.04v-.571h4.201v3.172h-4.208zm24.697 2.563v-3.172h4.006v3.172zm8.183-6.97v-5.788c0-1.152-.937-2.087-2.087-2.087h-3.655c.002-.041.024-.077.024-.12v-1.734h15.834v9.729zm10.116-41.936h-15.834v-11.005h15.834zm-6.212-17.928v2.502h-3.423v-2.502zm-3.727-4.177h-1.785c-1.153 0-2.088.935-2.088 2.087v4.834h-4.112c-1.153 0-2.088.936-2.088 2.087v47.036c0 .041.022.077.024.12h-25.096c-1.153 0-2.088.937-2.088 2.087v2.683h-2.103v-2.372c0-1.33-.823-2.469-2.06-2.938-.188-.283-.426-.599-.76-.902v-7.963c.966-.52 1.648-1.2 2.213-1.919 1.595-.304 3.904-1.366 3.904-3.466v-19.943c0-2.119-2.372-3.179-3.968-3.47-.535-.579-1.173-1.09-1.892-1.516v-2.325c.861-.78 1.556-1.73 2.003-2.82l18.496.422c.161.481.408.929.713 1.345l-4.898 7.977c-.116-.013-.224-.045-.342-.051-.035-.002-.21-.005-.245-.005-2.606 0-4.759 2.042-4.9 4.66-.063 1.312.387 2.566 1.269 3.537.879.966 2.085 1.531 3.376 1.592.037.002.219.008.257.008.367 0 .719-.049 1.062-.124l2.331 2.28-.1 2.477c-.021.546.173 1.08.538 1.485l4.649 5.137c.412.456.978.689 1.547.689.501 0 1.002-.178 1.4-.54.857-.774.921-2.093.148-2.948l-4.075-4.505.033-.805.805.049 4.073 4.501c.413.456.978.69 1.548.69.501 0 1.001-.179 1.4-.54.856-.774.921-2.094.147-2.948l-4.644-5.132c-.367-.404-.874-.65-1.42-.683l-3.219-.198c-.067-.006-.122.021-.186.021l-1.664-1.626c.289-.589.476-1.237.511-1.932.051-1.047-.242-2.031-.768-2.858l5.041-8.206c.041.001.222.007.259.007 2.606 0 4.753-2.042 4.888-4.66.124-2.69-1.959-4.992-4.646-5.127-.035-.002-.21-.006-.245-.006-1.735 0-3.251.911-4.125 2.284l-18.546-.425c-.14-.907-.44-1.753-.862-2.531v-3.105c2.47 1.679 5.862 1.758 6.308 1.758h3.297c1.153 0 2.087-.935 2.087-2.088s-.936-2.087-2.087-2.087h-3.297c-1.012 0-3.522-.35-4.399-1.389-2.314-2.733-5.377-2.728-8.364-2.716h-.692c-2.973-.019-6.046-.017-8.36 2.716-.874 1.033-3.346 1.381-4.401 1.387h-3.293c-1.153 0-2.088.935-2.088 2.087 0 1.153.935 2.088 2.088 2.088h3.293c.477 0 4.338-.087 6.821-2.143v2.494c-1 1.318-1.617 2.938-1.617 4.716 0 2.364 1.073 4.461 2.732 5.901v2.211c-.723.426-1.361.939-1.899 1.52-1.595.289-3.959 1.351-3.959 3.468v19.947c0 2.111 2.337 3.174 3.932 3.472.711.825 1.524 1.463 2.452 1.931v7.883c-.353.275-.646.575-.903.885-1.269.411-2.186 1.605-2.186 3.009v2.378h-2.144v-2.683c0-1.152-.935-2.087-2.088-2.087h-24.998v-47.152c0-1.153-.934-2.088-2.087-2.088h-4.362v-4.835c0-1.152-.935-2.087-2.087-2.087h-1.536v-.684h13.45v1.705c0 1.153.935 2.088 2.088 2.088h9.788c1.152 0 2.087-.937 2.087-2.088s-.935-2.087-2.087-2.087h-7.701v-11.89h58.939v11.89h-8.415c-1.153 0-2.087.934-2.087 2.087s.936 2.088 2.087 2.088h10.505c1.153 0 2.087-.937 2.087-2.088v-1.551h13.386zm-16.75 10.895v.517c-.013-.014-.029-.028-.041-.041l-.014-.478c-.241-.011-.398-.131-.491-.231-.074-.083-.2-.262-.188-.515.021-.391.342-.695.766-.695h.002c.396.022.703.365.687.754-.023.385-.338.689-.721.689zm-9.389 14.266c.397.021.705.365.688.762-.02.377-.342.683-.717.683v.76c-.01.018-.024.032-.034.047l-.019-.807c-.242-.012-.401-.131-.493-.232-.075-.084-.2-.263-.189-.512.022-.393.342-.701.764-.701zm52.099-29.866.022-.026v.026zm.075-13.683v-2.503h3.425v2.503z"/><path d="m71.466 54.906h.027c3.834 0 6.96-3.114 6.974-6.938.012-1.862-.705-3.617-2.017-4.943s-3.06-2.06-4.929-2.07c-3.841 0-6.984 3.111-7.005 6.94-.016 3.845 3.097 6.99 6.95 7.011zm.043-9.774c.744.004 1.445.299 1.972.831.528.532.815 1.237.811 1.987-.004 1.534-1.261 2.783-2.799 2.783v2.088l-.015-2.088c-1.542-.008-2.793-1.273-2.787-2.816.008-1.536 1.276-2.785 2.818-2.785z"/><path d="m99.166 116.974c-1.153 0-2.088.936-2.088 2.087v14.664c0 1.153.935 2.088 2.088 2.088s2.087-.937 2.087-2.088v-14.664c0-1.153-.934-2.087-2.087-2.087z"/><path d="m105.511 135.813c1.153 0 2.088-.937 2.088-2.088v-14.664c0-1.153-.937-2.087-2.088-2.087s-2.087.936-2.087 2.087v14.664c0 1.153.934 2.088 2.087 2.088z"/><path d="m102.09 63.017c1.153 0 2.088-.935 2.088-2.088v-4.173c0-1.153-.935-2.087-2.088-2.087s-2.088.934-2.088 2.087v4.173c0 1.153.935 2.088 2.088 2.088z"/><path d="m102.369 153.067c-1.153 0-2.088.937-2.088 2.088v11.541c0 1.153.935 2.088 2.088 2.088s2.087-.937 2.087-2.088v-11.541c0-1.153-.934-2.088-2.087-2.088z"/><path d="m113.908 50.328h14.378c1.153 0 2.087-.934 2.087-2.087s-.934-2.088-2.087-2.088h-14.378c-1.152 0-2.087.935-2.087 2.088s.935 2.087 2.087 2.087z"/><path d="m142.156 52.893c1.153 0 2.088-.935 2.088-2.087v-5.662c0-1.153-.937-2.088-2.088-2.088-1.15 0-2.087.935-2.087 2.088v5.662c-.002 1.152.935 2.087 2.087 2.087z"/><path d="m81.542 83.315h-5.011c-1.153 0-2.088.935-2.088 2.088s.935 2.087 2.088 2.087h5.011c1.153 0 2.088-.934 2.088-2.087s-.935-2.088-2.088-2.088z"/><path d="m91.413 83.315h-5.012c-1.153 0-2.088.935-2.088 2.088s.935 2.087 2.088 2.087h5.012c1.152 0 2.087-.934 2.087-2.087s-.935-2.088-2.087-2.088z"/><path d="m118.84 83.315h-5.01c-1.153 0-2.088.935-2.088 2.088s.937 2.087 2.088 2.087h5.01c1.152 0 2.087-.934 2.087-2.087s-.935-2.088-2.087-2.088z"/><path d="m123.698 87.49h5.014c1.153 0 2.087-.934 2.087-2.087s-.936-2.088-2.087-2.088h-5.014c-1.153 0-2.087.935-2.087 2.088s.934 2.087 2.087 2.087z"/><path d="m267.133 14.373 2.482 20.6c-2.647 3.144-7.198 5.956-13.651 8.438v113.426c6.619 2.647 11.169 5.377 13.651 8.19l-2.482 20.6h-58.078l-2.482-20.6c2.151-2.813 6.702-5.543 13.651-8.19v-113.426c-6.784-2.482-11.334-5.294-13.651-8.438l2.482-20.6h58.078z"/><path d="m361.944 41.426c-5.626-1.489-11.5-2.234-17.622-2.234s-11.045 1.531-14.768 4.592-5.584 7.363-5.584 12.906 1.406 9.886 4.219 13.03 8.356 5.874 16.629 8.191l22.09 6.453c11.913 3.474 21.386 8.893 28.418 16.256 7.032 7.364 10.548 18.16 10.548 32.39 0 16.877-6.08 30.197-18.242 39.959-12.162 9.763-27.26 14.644-45.296 14.644-9.928 0-20.145-1.282-30.652-3.847s-19.235-6.164-26.184-10.797v-5.708c0-2.813.579-7.611 1.737-14.395s2.813-12.327 4.964-16.629h23.578c2.648 5.129 4.22 11.996 4.716 20.6 5.791 2.482 12.534 3.723 20.228 3.723s14.023-1.82 18.987-5.461c4.964-3.64 7.446-8.852 7.446-15.636 0-3.144-.248-5.75-.745-7.818-.496-2.068-2.027-4.302-4.591-6.701-2.565-2.4-6.247-4.344-11.045-5.833l-25.564-7.446c-25.978-7.446-38.967-23.992-38.967-49.639 0-15.057 5.46-27.095 16.381-36.112 10.921-9.018 25.192-13.527 42.814-13.527s34.871 3.971 51.748 11.913v5.709c0 2.813-.579 7.611-1.737 14.395s-2.813 12.327-4.964 16.629h-23.578c-2.813-3.971-4.468-10.507-4.964-19.607z"/><path d="m495.473 41.426c-5.626-1.489-11.5-2.234-17.622-2.234s-11.045 1.531-14.768 4.592-5.584 7.363-5.584 12.906 1.406 9.886 4.219 13.03 8.356 5.874 16.629 8.191l22.09 6.453c11.913 3.474 21.386 8.893 28.418 16.256 7.032 7.364 10.548 18.16 10.548 32.39 0 16.877-6.08 30.197-18.242 39.959-12.161 9.763-27.26 14.644-45.296 14.644-9.927 0-20.145-1.282-30.652-3.847s-19.235-6.164-26.184-10.797v-5.708c0-2.813.579-7.611 1.737-14.395s2.813-12.327 4.964-16.629h23.579c2.647 5.129 4.219 11.996 4.715 20.6 5.791 2.482 12.534 3.723 20.228 3.723s14.023-1.82 18.987-5.461c4.964-3.64 7.446-8.852 7.446-15.636 0-3.144-.248-5.75-.745-7.818-.496-2.068-2.027-4.302-4.591-6.701-2.565-2.4-6.246-4.344-11.045-5.833l-25.564-7.446c-25.978-7.446-38.967-23.992-38.967-49.639 0-15.057 5.461-27.095 16.381-36.112 10.921-9.018 25.192-13.527 42.814-13.527s34.871 3.971 51.749 11.913v5.709c0 2.813-.579 7.611-1.738 14.395-1.158 6.784-2.813 12.327-4.964 16.629h-23.578c-2.813-3.971-4.468-10.507-4.964-19.607z"/></g></svg>